<?xml version="1.0" encoding="utf-8"?>
<!DOCTYPE svg PUBLIC "-//W3C//DTD SVG 1.1//EN" "http://www.w3.org/Graphics/SVG/1.1/DTD/svg11.dtd">
<svg version="1.1" id="Ebene_1" xmlns="http://www.w3.org/2000/svg" xmlns:xlink="http://www.w3.org/1999/xlink" x="0px" y="0px"
	 width="473.576px" height="396px" viewBox="269.389 0 473.576 396" enable-background="new 269.389 0 473.576 396"
	 xml:space="preserve">
<g id="Ebene_1_1_">
	<path id="Topf" fill="#346369" d="M661.034,200.016c-2.547-3.102-7.646-3.744-11.479-3.744c-5.071,0-10.375,1.104-12.78,2.149
		c-12.677,5.5-21.511,13.259-27.138,19.552c-0.06-6.748-0.114-10.828-0.114-10.828H400.99c0,0,0,4.109,0.048,10.586
		c-5.646-6.149-14.273-13.521-26.451-18.799c-2.408-1.049-7.711-2.157-12.783-2.157c-3.834,0-8.938,0.648-11.483,3.749
		c-1.416,1.721-1.869,3.932-1.351,6.576c1.095,5.547,8.19,7.11,15.699,8.754c4.922,1.076,10.012,2.194,14.03,4.408
		c6.771,3.752,15.742,9.403,22.525,14.471c0.081,5.556,0.196,11.537,0.35,17.553c0,24.929,10.433,94.359,23.3,94.359h161.628
		c12.865,0,23.298-69.433,23.298-94.359c0-6.314-0.021-12.32-0.048-17.771c6.822-5.14,16.007-10.938,22.906-14.752
		c4.017-2.217,9.109-3.34,14.029-4.412c7.51-1.647,14.605-3.207,15.696-8.752C662.903,203.941,662.45,201.732,661.034,200.016z"/>
	<path id="Deckel" fill="#346369" d="M537.596,174.05c-1.187-19.845-15.161-35.508-32.25-35.508
		c-17.114,0-31.103,15.709-32.258,35.593c-32.961,4.125-59.185,14.314-70.379,27.315h205.936
		C597.37,188.369,570.871,178.113,537.596,174.05z M505.609,147.959c9.56,0,17.349,8.938,17.728,20.125
		c-5.512-0.67-11.356-1.034-17.414-1.034c-6.293,0-12.351,0.396-18.037,1.11C488.229,156.936,496.027,147.959,505.609,147.959z"/>
	<rect id="JS_BG" x="520.655" y="272.305" fill="#FFFFFF" width="64.545" height="64.545"/>
	<path id="J" fill="#346369" d="M537.627,326.242l4.938-2.988c0.953,1.688,1.818,3.118,3.897,3.118c1.993,0,3.249-0.778,3.249-3.813
		v-20.623h6.065v20.709c0,6.283-3.684,9.143-9.055,9.143C541.873,331.787,539.057,329.275,537.627,326.242"/>
	<path id="S" fill="#346369" d="M559.074,325.594l4.938-2.859c1.302,2.123,2.989,3.685,5.979,3.685c2.514,0,4.116-1.258,4.116-2.989
		c0-2.08-1.646-2.816-4.42-4.029l-1.518-0.648c-4.377-1.863-7.277-4.203-7.277-9.143c0-4.551,3.466-8.016,8.882-8.016
		c3.855,0,6.629,1.342,8.622,4.852l-4.726,3.033c-1.038-1.862-2.165-2.6-3.896-2.6c-1.776,0-2.903,1.126-2.903,2.6
		c0,1.819,1.127,2.557,3.728,3.684l1.517,0.648c5.156,2.211,8.061,4.463,8.061,9.531c0,5.461-4.29,8.449-10.053,8.449
		C564.49,331.788,560.852,329.104,559.074,325.594"/>
</g>
<rect id="Block" x="269.389" y="354.499" fill="#346369" width="473.576" height="42.351"/>
<g enable-background="new    ">
	<path fill="#FFFFFF" d="M357.684,383h-1.705l-7.022-10.785h-0.07c0.094,1.266,0.141,2.426,0.141,3.48V383h-1.38v-12.85h1.688
		l7.005,10.74h0.07c-0.012-0.158-0.038-0.666-0.079-1.525c-0.041-0.857-0.056-1.473-0.044-1.842v-7.373h1.397V383z"/>
	<path fill="#FFFFFF" d="M362.368,373.367v6.248c0,0.785,0.179,1.371,0.536,1.758s0.917,0.58,1.679,0.58
		c1.008,0,1.745-0.275,2.21-0.826s0.699-1.449,0.699-2.697v-5.063h1.459V383h-1.204l-0.211-1.293h-0.079
		c-0.299,0.475-0.713,0.838-1.244,1.09s-1.135,0.379-1.815,0.379c-1.172,0-2.049-0.279-2.632-0.836s-0.875-1.447-0.875-2.672v-6.301
		H362.368z"/>
	<path fill="#FFFFFF" d="M376.44,373.191c0.428,0,0.812,0.035,1.151,0.105l-0.202,1.354c-0.398-0.088-0.75-0.133-1.055-0.133
		c-0.779,0-1.446,0.316-2,0.949s-0.831,1.422-0.831,2.365V383h-1.459v-9.633h1.204l0.167,1.783h0.07
		c0.357-0.627,0.788-1.109,1.292-1.449S375.836,373.191,376.44,373.191z"/>
	<path fill="#FFFFFF" d="M388.551,373.209c1.266,0,2.248,0.432,2.949,1.297c0.699,0.863,1.05,2.086,1.05,3.668
		s-0.354,2.813-1.06,3.688c-0.706,0.877-1.686,1.314-2.939,1.314c-0.627,0-1.2-0.117-1.718-0.348s-0.954-0.588-1.305-1.068h-0.105
		l-0.308,1.24h-1.046v-13.676h1.459v3.322c0,0.744-0.023,1.412-0.07,2.004h0.07C386.207,373.689,387.215,373.209,388.551,373.209z
		 M388.34,374.43c-0.996,0-1.714,0.287-2.153,0.857c-0.439,0.572-0.659,1.533-0.659,2.887s0.226,2.322,0.677,2.906
		c0.451,0.582,1.175,0.873,2.171,0.873c0.896,0,1.564-0.326,2.004-0.979c0.439-0.654,0.659-1.594,0.659-2.818
		c0-1.254-0.22-2.188-0.659-2.803S389.26,374.43,388.34,374.43z"/>
	<path fill="#FFFFFF" d="M399.168,383.176c-1.424,0-2.548-0.434-3.37-1.301c-0.824-0.867-1.235-2.072-1.235-3.613
		c0-1.553,0.382-2.785,1.147-3.699c0.764-0.914,1.791-1.371,3.08-1.371c1.207,0,2.162,0.396,2.865,1.191
		c0.703,0.793,1.055,1.84,1.055,3.141v0.924h-6.636c0.029,1.131,0.314,1.988,0.856,2.574s1.306,0.879,2.29,0.879
		c1.037,0,2.063-0.217,3.076-0.65v1.301c-0.516,0.223-1.004,0.383-1.464,0.48C400.373,383.127,399.819,383.176,399.168,383.176z
		 M398.773,374.412c-0.773,0-1.391,0.252-1.85,0.756c-0.461,0.504-0.731,1.201-0.813,2.092h5.036c0-0.92-0.205-1.623-0.615-2.113
		C400.12,374.658,399.534,374.412,398.773,374.412z"/>
	<path fill="#FFFFFF" d="M411.411,380.371c0,0.896-0.334,1.588-1.002,2.074s-1.605,0.73-2.813,0.73
		c-1.277,0-2.273-0.203-2.988-0.607v-1.354c0.463,0.234,0.959,0.42,1.489,0.555s1.042,0.201,1.534,0.201
		c0.762,0,1.348-0.121,1.758-0.363c0.41-0.244,0.615-0.615,0.615-1.113c0-0.375-0.163-0.695-0.487-0.961
		c-0.326-0.268-0.96-0.582-1.903-0.945c-0.896-0.334-1.534-0.625-1.911-0.875c-0.379-0.248-0.66-0.531-0.844-0.848
		c-0.186-0.316-0.277-0.695-0.277-1.135c0-0.785,0.319-1.404,0.958-1.857c0.639-0.455,1.515-0.682,2.628-0.682
		c1.037,0,2.051,0.211,3.041,0.633l-0.519,1.186c-0.967-0.398-1.843-0.598-2.628-0.598c-0.691,0-1.213,0.109-1.564,0.326
		s-0.527,0.516-0.527,0.896c0,0.258,0.066,0.477,0.197,0.658c0.133,0.182,0.345,0.355,0.638,0.52s0.855,0.4,1.688,0.711
		c1.143,0.416,1.914,0.836,2.315,1.258S411.411,379.732,411.411,380.371z"/>
	<path fill="#FFFFFF" d="M416.896,381.971c0.258,0,0.507-0.018,0.747-0.057c0.24-0.037,0.431-0.078,0.571-0.119v1.117
		c-0.158,0.076-0.391,0.139-0.699,0.189c-0.307,0.049-0.584,0.074-0.83,0.074c-1.863,0-2.795-0.982-2.795-2.945v-5.73h-1.38v-0.703
		l1.38-0.605l0.615-2.057h0.844v2.232h2.795v1.133h-2.795v5.67c0,0.58,0.138,1.025,0.413,1.336S416.415,381.971,416.896,381.971z"/>
	<path fill="#FFFFFF" d="M424.208,383.176c-1.424,0-2.548-0.434-3.37-1.301c-0.824-0.867-1.235-2.072-1.235-3.613
		c0-1.553,0.382-2.785,1.147-3.699c0.764-0.914,1.791-1.371,3.08-1.371c1.207,0,2.162,0.396,2.865,1.191
		c0.703,0.793,1.055,1.84,1.055,3.141v0.924h-6.636c0.029,1.131,0.314,1.988,0.856,2.574s1.306,0.879,2.29,0.879
		c1.037,0,2.063-0.217,3.076-0.65v1.301c-0.516,0.223-1.004,0.383-1.464,0.48C425.413,383.127,424.859,383.176,424.208,383.176z
		 M423.813,374.412c-0.773,0-1.391,0.252-1.85,0.756c-0.461,0.504-0.731,1.201-0.813,2.092h5.036c0-0.92-0.205-1.623-0.615-2.113
		C425.16,374.658,424.574,374.412,423.813,374.412z"/>
	<path fill="#FFFFFF" d="M442.92,383h-8.833v-1.17l6.82-10.336h-6.609v-1.344h8.429v1.168l-6.82,10.328h7.014V383z"/>
	<path fill="#FFFFFF" d="M446.559,373.367v6.248c0,0.785,0.179,1.371,0.536,1.758s0.917,0.58,1.679,0.58
		c1.008,0,1.744-0.275,2.211-0.826c0.465-0.551,0.698-1.449,0.698-2.697v-5.063h1.459V383h-1.204l-0.211-1.293h-0.079
		c-0.299,0.475-0.714,0.838-1.243,1.09c-0.531,0.252-1.136,0.379-1.815,0.379c-1.172,0-2.05-0.279-2.632-0.836
		c-0.584-0.557-0.875-1.447-0.875-2.672v-6.301H446.559z"/>
	<path fill="#FFFFFF" d="M459.347,381.971c0.258,0,0.507-0.018,0.747-0.057c0.24-0.037,0.431-0.078,0.571-0.119v1.117
		c-0.158,0.076-0.391,0.139-0.699,0.189c-0.307,0.049-0.584,0.074-0.83,0.074c-1.863,0-2.795-0.982-2.795-2.945v-5.73h-1.38v-0.703
		l1.38-0.605l0.615-2.057h0.844v2.232h2.795v1.133H457.8v5.67c0,0.58,0.138,1.025,0.413,1.336S458.866,381.971,459.347,381.971z"/>
	<path fill="#FFFFFF" d="M468.514,383l-0.29-1.371h-0.07c-0.48,0.604-0.96,1.012-1.437,1.227c-0.479,0.213-1.074,0.32-1.789,0.32
		c-0.955,0-1.704-0.246-2.246-0.738s-0.813-1.193-0.813-2.102c0-1.945,1.556-2.965,4.667-3.059l1.635-0.053v-0.598
		c0-0.756-0.163-1.313-0.487-1.674c-0.326-0.359-0.846-0.541-1.561-0.541c-0.803,0-1.711,0.246-2.725,0.738l-0.448-1.115
		c0.475-0.258,0.994-0.461,1.56-0.607s1.133-0.219,1.701-0.219c1.148,0,2,0.254,2.553,0.764c0.555,0.51,0.831,1.328,0.831,2.453V383
		H468.514z M465.218,381.971c0.908,0,1.622-0.248,2.14-0.746c0.52-0.498,0.778-1.195,0.778-2.092v-0.871l-1.459,0.063
		c-1.16,0.041-1.997,0.221-2.509,0.541c-0.514,0.318-0.77,0.814-0.77,1.488c0,0.527,0.159,0.93,0.479,1.205
		S464.644,381.971,465.218,381.971z"/>
	<path fill="#FFFFFF" d="M475.712,381.971c0.258,0,0.507-0.018,0.747-0.057c0.24-0.037,0.431-0.078,0.571-0.119v1.117
		c-0.158,0.076-0.391,0.139-0.699,0.189c-0.307,0.049-0.584,0.074-0.83,0.074c-1.863,0-2.795-0.982-2.795-2.945v-5.73h-1.38v-0.703
		l1.38-0.605l0.615-2.057h0.844v2.232h2.795v1.133h-2.795v5.67c0,0.58,0.138,1.025,0.413,1.336S475.232,381.971,475.712,381.971z"/>
	<path fill="#FFFFFF" d="M483.025,383.176c-1.424,0-2.548-0.434-3.37-1.301c-0.824-0.867-1.235-2.072-1.235-3.613
		c0-1.553,0.382-2.785,1.147-3.699c0.764-0.914,1.791-1.371,3.08-1.371c1.207,0,2.162,0.396,2.865,1.191
		c0.703,0.793,1.055,1.84,1.055,3.141v0.924h-6.636c0.029,1.131,0.314,1.988,0.856,2.574s1.306,0.879,2.29,0.879
		c1.037,0,2.063-0.217,3.076-0.65v1.301c-0.516,0.223-1.004,0.383-1.464,0.48C484.23,383.127,483.675,383.176,483.025,383.176z
		 M482.629,374.412c-0.773,0-1.391,0.252-1.85,0.756c-0.461,0.504-0.731,1.201-0.813,2.092h5.036c0-0.92-0.205-1.623-0.615-2.113
		C483.977,374.658,483.391,374.412,482.629,374.412z"/>
	<path fill="#FFFFFF" d="M495.646,383v-6.232c0-0.785-0.179-1.371-0.536-1.758s-0.917-0.58-1.679-0.58
		c-1.008,0-1.746,0.273-2.215,0.818s-0.703,1.443-0.703,2.697V383h-1.459v-9.633h1.187l0.237,1.318h0.07
		c0.299-0.475,0.718-0.842,1.257-1.104c0.539-0.26,1.14-0.391,1.802-0.391c1.16,0,2.033,0.279,2.619,0.84
		c0.586,0.559,0.879,1.453,0.879,2.684V383H495.646z"/>
	<path fill="#FFFFFF" d="M509.119,374.5h-2.452v8.5h-1.459v-8.5h-1.723v-0.658l1.723-0.527v-0.537c0-2.367,1.034-3.551,3.103-3.551
		c0.51,0,1.107,0.104,1.793,0.309l-0.378,1.168c-0.563-0.182-1.043-0.271-1.441-0.271c-0.551,0-0.958,0.184-1.222,0.549
		c-0.264,0.367-0.396,0.953-0.396,1.762v0.625h2.452V374.5z"/>
	<path fill="#FFFFFF" d="M512.248,373.367v6.248c0,0.785,0.179,1.371,0.536,1.758s0.917,0.58,1.679,0.58
		c1.008,0,1.744-0.275,2.211-0.826c0.465-0.551,0.698-1.449,0.698-2.697v-5.063h1.459V383h-1.204l-0.211-1.293h-0.079
		c-0.299,0.475-0.714,0.838-1.243,1.09c-0.531,0.252-1.136,0.379-1.815,0.379c-1.172,0-2.05-0.279-2.632-0.836
		c-0.584-0.557-0.875-1.447-0.875-2.672v-6.301H512.248z M512.336,370.756c0-0.305,0.077-0.523,0.232-0.658s0.342-0.203,0.559-0.203
		c0.223,0,0.414,0.068,0.576,0.203c0.16,0.135,0.241,0.354,0.241,0.658c0,0.293-0.081,0.512-0.241,0.656
		c-0.162,0.143-0.354,0.215-0.576,0.215c-0.217,0-0.403-0.072-0.559-0.215C512.413,371.268,512.336,371.049,512.336,370.756z
		 M515.685,370.756c0-0.305,0.077-0.523,0.233-0.658c0.154-0.135,0.341-0.203,0.558-0.203s0.405,0.068,0.567,0.203
		c0.16,0.135,0.241,0.354,0.241,0.658c0,0.293-0.081,0.512-0.241,0.656c-0.162,0.143-0.351,0.215-0.567,0.215
		s-0.403-0.072-0.558-0.215C515.762,371.268,515.685,371.049,515.685,370.756z"/>
	<path fill="#FFFFFF" d="M526.32,373.191c0.428,0,0.812,0.035,1.151,0.105l-0.202,1.354c-0.398-0.088-0.75-0.133-1.055-0.133
		c-0.779,0-1.445,0.316-2,0.949c-0.553,0.633-0.83,1.422-0.83,2.365V383h-1.459v-9.633h1.204l0.167,1.783h0.07
		c0.357-0.627,0.788-1.109,1.292-1.449S525.716,373.191,526.32,373.191z"/>
	<path fill="#FFFFFF" d="M534.168,383v-12.85h1.494V383H534.168z"/>
	<path fill="#FFFFFF" d="M545.559,383v-6.232c0-0.785-0.179-1.371-0.536-1.758s-0.917-0.58-1.679-0.58
		c-1.014,0-1.754,0.275-2.219,0.826c-0.467,0.551-0.699,1.453-0.699,2.707V383h-1.459v-13.676h1.459v4.139
		c0,0.498-0.023,0.912-0.07,1.24h0.088c0.287-0.463,0.695-0.828,1.227-1.094c0.529-0.268,1.135-0.4,1.814-0.4
		c1.178,0,2.061,0.279,2.65,0.84c0.588,0.559,0.883,1.447,0.883,2.666V383H545.559z"/>
	<path fill="#FFFFFF" d="M554.409,373.191c0.428,0,0.812,0.035,1.151,0.105l-0.202,1.354c-0.398-0.088-0.75-0.133-1.055-0.133
		c-0.779,0-1.445,0.316-2,0.949c-0.553,0.633-0.83,1.422-0.83,2.365V383h-1.459v-9.633h1.204l0.167,1.783h0.07
		c0.357-0.627,0.788-1.109,1.292-1.449S553.806,373.191,554.409,373.191z"/>
	<path fill="#FFFFFF" d="M561.432,383.176c-1.424,0-2.548-0.434-3.37-1.301c-0.824-0.867-1.235-2.072-1.235-3.613
		c0-1.553,0.382-2.785,1.147-3.699c0.764-0.914,1.791-1.371,3.08-1.371c1.207,0,2.162,0.396,2.865,1.191
		c0.703,0.793,1.055,1.84,1.055,3.141v0.924h-6.636c0.029,1.131,0.314,1.988,0.856,2.574s1.306,0.879,2.29,0.879
		c1.037,0,2.063-0.217,3.076-0.65v1.301c-0.516,0.223-1.004,0.383-1.464,0.48C562.637,383.127,562.082,383.176,561.432,383.176z
		 M561.036,374.412c-0.773,0-1.391,0.252-1.85,0.756c-0.461,0.504-0.731,1.201-0.813,2.092h5.036c0-0.92-0.205-1.623-0.615-2.113
		C562.384,374.658,561.798,374.412,561.036,374.412z"/>
	<path fill="#FFFFFF" d="M580.434,383l-1.6-4.088h-5.15L572.102,383h-1.512l5.08-12.902h1.257L581.981,383H580.434z
		 M578.368,377.568l-1.494-3.982c-0.193-0.504-0.393-1.121-0.598-1.854c-0.129,0.563-0.313,1.18-0.554,1.854l-1.512,3.982H578.368z"
		/>
	<path fill="#FFFFFF" d="M588.01,383.176c-0.627,0-1.199-0.117-1.719-0.348c-0.518-0.23-0.953-0.588-1.305-1.068h-0.105
		c0.07,0.563,0.105,1.096,0.105,1.6v3.965h-1.459v-13.957h1.187l0.202,1.318h0.07c0.375-0.527,0.812-0.908,1.31-1.143
		s1.069-0.352,1.714-0.352c1.277,0,2.264,0.436,2.957,1.309c0.695,0.873,1.042,2.098,1.042,3.674c0,1.582-0.354,2.813-1.06,3.688
		C590.243,382.738,589.264,383.176,588.01,383.176z M587.799,374.43c-0.984,0-1.696,0.273-2.136,0.818s-0.665,1.412-0.677,2.602
		v0.324c0,1.354,0.226,2.322,0.677,2.906c0.451,0.582,1.175,0.873,2.171,0.873c0.832,0,1.483-0.336,1.955-1.01
		s0.708-1.604,0.708-2.787c0-1.201-0.236-2.121-0.708-2.764C589.318,374.752,588.655,374.43,587.799,374.43z"/>
	<path fill="#FFFFFF" d="M599.04,383.176c-0.627,0-1.199-0.117-1.719-0.348c-0.518-0.23-0.953-0.588-1.305-1.068h-0.105
		c0.07,0.563,0.105,1.096,0.105,1.6v3.965h-1.459v-13.957h1.187l0.202,1.318h0.07c0.375-0.527,0.812-0.908,1.31-1.143
		s1.069-0.352,1.714-0.352c1.277,0,2.264,0.436,2.957,1.309c0.695,0.873,1.042,2.098,1.042,3.674c0,1.582-0.354,2.813-1.06,3.688
		C601.274,382.738,600.294,383.176,599.04,383.176z M598.829,374.43c-0.984,0-1.696,0.273-2.136,0.818s-0.665,1.412-0.677,2.602
		v0.324c0,1.354,0.226,2.322,0.677,2.906c0.451,0.582,1.175,0.873,2.171,0.873c0.832,0,1.483-0.336,1.955-1.01
		s0.708-1.604,0.708-2.787c0-1.201-0.236-2.121-0.708-2.764C600.348,374.752,599.685,374.43,598.829,374.43z"/>
	<path fill="#FFFFFF" d="M607.047,383h-1.459v-13.676h1.459V383z"/>
	<path fill="#FFFFFF" d="M610.018,370.756c0-0.334,0.082-0.578,0.246-0.732c0.164-0.156,0.369-0.234,0.615-0.234
		c0.234,0,0.437,0.08,0.606,0.238s0.255,0.4,0.255,0.729s-0.085,0.574-0.255,0.734c-0.17,0.162-0.372,0.242-0.606,0.242
		c-0.246,0-0.451-0.08-0.615-0.242C610.1,371.33,610.018,371.084,610.018,370.756z M611.6,383h-1.459v-9.633h1.459V383z"/>
	<path fill="#FFFFFF" d="M616.135,378.068c0.252-0.357,0.636-0.826,1.151-1.406l3.111-3.295h1.731l-3.902,4.104l4.175,5.529h-1.767
		l-3.401-4.553l-1.099,0.949V383h-1.441v-13.676h1.441v7.25c0,0.322-0.023,0.82-0.07,1.494H616.135z"/>
	<path fill="#FFFFFF" d="M630.066,383l-0.29-1.371h-0.07c-0.48,0.604-0.96,1.012-1.437,1.227c-0.479,0.213-1.074,0.32-1.789,0.32
		c-0.955,0-1.704-0.246-2.246-0.738s-0.813-1.193-0.813-2.102c0-1.945,1.556-2.965,4.667-3.059l1.635-0.053v-0.598
		c0-0.756-0.163-1.313-0.487-1.674c-0.326-0.359-0.846-0.541-1.561-0.541c-0.803,0-1.711,0.246-2.725,0.738l-0.448-1.115
		c0.475-0.258,0.994-0.461,1.56-0.607s1.133-0.219,1.701-0.219c1.148,0,2,0.254,2.553,0.764c0.555,0.51,0.831,1.328,0.831,2.453V383
		H630.066z M626.77,381.971c0.908,0,1.622-0.248,2.14-0.746c0.52-0.498,0.778-1.195,0.778-2.092v-0.871l-1.459,0.063
		c-1.16,0.041-1.997,0.221-2.509,0.541c-0.514,0.318-0.77,0.814-0.77,1.488c0,0.527,0.159,0.93,0.479,1.205
		S626.196,381.971,626.77,381.971z"/>
	<path fill="#FFFFFF" d="M637.264,381.971c0.258,0,0.507-0.018,0.747-0.057c0.24-0.037,0.431-0.078,0.571-0.119v1.117
		c-0.158,0.076-0.391,0.139-0.699,0.189c-0.307,0.049-0.584,0.074-0.83,0.074c-1.863,0-2.795-0.982-2.795-2.945v-5.73h-1.38v-0.703
		l1.38-0.605l0.615-2.057h0.844v2.232h2.795v1.133h-2.795v5.67c0,0.58,0.138,1.025,0.413,1.336S636.783,381.971,637.264,381.971z"/>
	<path fill="#FFFFFF" d="M640.384,370.756c0-0.334,0.082-0.578,0.246-0.732c0.164-0.156,0.369-0.234,0.615-0.234
		c0.234,0,0.437,0.08,0.606,0.238s0.255,0.4,0.255,0.729s-0.085,0.574-0.255,0.734c-0.17,0.162-0.372,0.242-0.606,0.242
		c-0.246,0-0.451-0.08-0.615-0.242C640.466,371.33,640.384,371.084,640.384,370.756z M641.966,383h-1.459v-9.633h1.459V383z"/>
	<path fill="#FFFFFF" d="M653.374,378.174c0,1.57-0.396,2.797-1.187,3.68c-0.791,0.881-1.884,1.322-3.278,1.322
		c-0.861,0-1.626-0.203-2.294-0.607s-1.184-0.984-1.547-1.74s-0.545-1.641-0.545-2.654c0-1.57,0.393-2.793,1.178-3.668
		c0.785-0.877,1.875-1.314,3.27-1.314c1.348,0,2.418,0.447,3.212,1.344S653.374,376.645,653.374,378.174z M646.035,378.174
		c0,1.23,0.246,2.168,0.738,2.813s1.216,0.967,2.171,0.967s1.68-0.32,2.176-0.961c0.494-0.643,0.742-1.582,0.742-2.818
		c0-1.225-0.248-2.154-0.742-2.789c-0.496-0.637-1.227-0.955-2.193-0.955c-0.955,0-1.676,0.314-2.162,0.941
		S646.035,376.932,646.035,378.174z"/>
	<path fill="#FFFFFF" d="M662.524,383v-6.232c0-0.785-0.179-1.371-0.536-1.758s-0.917-0.58-1.679-0.58
		c-1.008,0-1.746,0.273-2.215,0.818s-0.703,1.443-0.703,2.697V383h-1.459v-9.633h1.187l0.237,1.318h0.07
		c0.299-0.475,0.718-0.842,1.257-1.104c0.539-0.26,1.14-0.391,1.802-0.391c1.16,0,2.033,0.279,2.619,0.84
		c0.586,0.559,0.879,1.453,0.879,2.684V383H662.524z"/>
</g>
<polygon id="Banner" fill="#346369" points="742.965,86.472 268.389,86.472 302.287,51.162 268.389,15.851 742.965,15.851 
	708.441,51.162 "/>
<g enable-background="new    ">
	<path fill="#FFFFFF" d="M381.915,62.5h-14.801V36.8h14.801v4.465h-9.352v5.643h8.701v4.465h-8.701V58h9.352V62.5z"/>
	<path fill="#FFFFFF" d="M390.88,52.462l-6.328-9.615h6.082l3.814,6.258l3.85-6.258h6.082l-6.398,9.615l6.697,10.037h-6.1
		l-4.131-6.732L390.3,62.5h-6.082L390.88,52.462z"/>
	<path fill="#FFFFFF" d="M415.947,58.58c0.938,0,2.063-0.205,3.375-0.615v3.99c-1.336,0.598-2.977,0.896-4.922,0.896
		c-2.145,0-3.706-0.542-4.685-1.626s-1.468-2.71-1.468-4.878v-9.475h-2.566v-2.268l2.953-1.793l1.547-4.148h3.428v4.184h5.502v4.025
		h-5.502v9.475c0,0.762,0.214,1.324,0.642,1.688S415.243,58.58,415.947,58.58z"/>
	<path fill="#FFFFFF" d="M430.378,70.058c-1.23,0-2.303-0.129-3.217-0.387v-4.535c0.938,0.234,1.793,0.352,2.566,0.352
		c1.195,0,2.051-0.372,2.566-1.116s0.773-1.907,0.773-3.489V36.8h5.449v24.047c0,3-0.686,5.285-2.057,6.855
		S433.062,70.058,430.378,70.058z"/>
	<path fill="#FFFFFF" d="M460.156,55.363c0,2.32-0.835,4.148-2.505,5.484s-3.993,2.004-6.97,2.004c-2.742,0-5.168-0.516-7.277-1.547
		v-5.063c1.734,0.773,3.202,1.318,4.403,1.635s2.3,0.475,3.296,0.475c1.195,0,2.112-0.229,2.751-0.686s0.958-1.137,0.958-2.039
		c0-0.504-0.141-0.952-0.422-1.345s-0.694-0.771-1.239-1.134s-1.655-0.943-3.331-1.74c-1.57-0.738-2.748-1.447-3.533-2.127
		s-1.412-1.471-1.881-2.373s-0.703-1.957-0.703-3.164c0-2.273,0.771-4.061,2.312-5.361s3.671-1.951,6.39-1.951
		c1.336,0,2.61,0.158,3.823,0.475s2.481,0.762,3.806,1.336l-1.758,4.236c-1.371-0.563-2.505-0.955-3.401-1.178
		s-1.778-0.334-2.646-0.334c-1.031,0-1.822,0.24-2.373,0.721s-0.826,1.107-0.826,1.881c0,0.48,0.111,0.899,0.334,1.257
		s0.577,0.703,1.063,1.037s1.638,0.935,3.454,1.802c2.402,1.148,4.049,2.3,4.939,3.454S460.156,53.687,460.156,55.363z"/>
	<path fill="#FFFFFF" d="M494.837,62.5h-6.188l-6.732-10.828l-2.303,1.652V62.5h-5.449V36.8h5.449v11.76l2.145-3.023l6.961-8.736
		h6.047l-8.965,11.373L494.837,62.5z"/>
	<path fill="#FFFFFF" d="M515.509,52.638c0,3.199-0.844,5.701-2.531,7.506s-4.037,2.707-7.049,2.707
		c-1.887,0-3.551-0.413-4.992-1.239s-2.549-2.013-3.322-3.56s-1.16-3.352-1.16-5.414c0-3.211,0.838-5.707,2.514-7.488
		s4.031-2.672,7.066-2.672c1.887,0,3.551,0.41,4.992,1.23s2.549,1.998,3.322,3.533S515.509,50.576,515.509,52.638z M501.921,52.638
		c0,1.945,0.319,3.416,0.958,4.412s1.679,1.494,3.12,1.494c1.43,0,2.458-0.495,3.085-1.485s0.94-2.464,0.94-4.421
		c0-1.945-0.316-3.404-0.949-4.377s-1.67-1.459-3.111-1.459c-1.43,0-2.461,0.483-3.094,1.45S501.921,50.681,501.921,52.638z"/>
	<path fill="#FFFFFF" d="M527.919,62.851c-6.117,0-9.176-3.357-9.176-10.072c0-3.34,0.832-5.892,2.496-7.655
		s4.049-2.646,7.154-2.646c2.273,0,4.313,0.445,6.117,1.336l-1.582,4.148c-0.844-0.34-1.629-0.618-2.355-0.835
		s-1.453-0.325-2.18-0.325c-2.789,0-4.184,1.98-4.184,5.941c0,3.844,1.395,5.766,4.184,5.766c1.031,0,1.986-0.138,2.865-0.413
		s1.758-0.706,2.637-1.292v4.588c-0.867,0.551-1.743,0.932-2.628,1.143S529.267,62.851,527.919,62.851z"/>
	<path fill="#FFFFFF" d="M556.589,62.5h-5.361V51.021c0-2.836-1.055-4.254-3.164-4.254c-1.5,0-2.584,0.51-3.252,1.529
		s-1.002,2.672-1.002,4.957V62.5h-5.361V35.148h5.361v5.572c0,0.434-0.041,1.453-0.123,3.059l-0.123,1.582h0.281
		c1.195-1.922,3.094-2.883,5.695-2.883c2.309,0,4.061,0.621,5.256,1.863s1.793,3.023,1.793,5.344V62.5z"/>
	<path fill="#FFFFFF" d="M573.042,42.478c2.32,0,4.137,0.905,5.449,2.716s1.969,4.292,1.969,7.444c0,3.246-0.677,5.76-2.03,7.541
		s-3.196,2.672-5.528,2.672c-2.309,0-4.119-0.838-5.432-2.514h-0.369l-0.896,2.162h-4.096V35.148h5.361v6.363
		c0,0.809-0.07,2.104-0.211,3.885h0.211C568.724,43.451,570.581,42.478,573.042,42.478z M571.32,46.767
		c-1.324,0-2.291,0.407-2.9,1.222s-0.926,2.159-0.949,4.034v0.58c0,2.109,0.313,3.621,0.94,4.535s1.62,1.371,2.979,1.371
		c1.102,0,1.978-0.507,2.628-1.521s0.976-2.487,0.976-4.421s-0.328-3.384-0.984-4.351S572.456,46.767,571.32,46.767z"/>
	<path fill="#FFFFFF" d="M598.812,62.5l-0.721-2.514h-0.281c-0.574,0.914-1.389,1.62-2.443,2.118s-2.256,0.747-3.604,0.747
		c-2.309,0-4.049-0.618-5.221-1.854s-1.758-3.015-1.758-5.335V42.847h5.361v11.479c0,1.418,0.252,2.481,0.756,3.19
		s1.307,1.063,2.408,1.063c1.5,0,2.584-0.501,3.252-1.503s1.002-2.663,1.002-4.983v-9.246h5.361V62.5H598.812z"/>
	<path fill="#FFFFFF" d="M616.531,62.851c-6.117,0-9.176-3.357-9.176-10.072c0-3.34,0.832-5.892,2.496-7.655
		s4.049-2.646,7.154-2.646c2.273,0,4.313,0.445,6.117,1.336l-1.582,4.148c-0.844-0.34-1.629-0.618-2.355-0.835
		s-1.453-0.325-2.18-0.325c-2.789,0-4.184,1.98-4.184,5.941c0,3.844,1.395,5.766,4.184,5.766c1.031,0,1.986-0.138,2.865-0.413
		s1.758-0.706,2.637-1.292v4.588c-0.867,0.551-1.743,0.932-2.628,1.143S617.878,62.851,616.531,62.851z"/>
	<path fill="#FFFFFF" d="M645.2,62.5h-5.361V51.021c0-2.836-1.055-4.254-3.164-4.254c-1.5,0-2.584,0.51-3.252,1.529
		s-1.002,2.672-1.002,4.957V62.5h-5.361V35.148h5.361v5.572c0,0.434-0.041,1.453-0.123,3.059l-0.123,1.582h0.281
		c1.195-1.922,3.094-2.883,5.695-2.883c2.309,0,4.061,0.621,5.256,1.863s1.793,3.023,1.793,5.344V62.5z"/>
</g>
</svg>
