<?xml version="1.0" encoding="utf-8"?>
<!DOCTYPE svg PUBLIC "-//W3C//DTD SVG 1.1//EN" "http://www.w3.org/Graphics/SVG/1.1/DTD/svg11.dtd">
<svg version="1.1" id="Ebene_1" xmlns="http://www.w3.org/2000/svg" xmlns:xlink="http://www.w3.org/1999/xlink" x="0px" y="0px"
	 width="1010px" height="396px" viewBox="-249.88 0.425 1010 396" enable-background="new -249.88 0.425 1010 396"
	 xml:space="preserve">
<g id="Ebene_1_1_">
	<path id="Topf" fill="#346369" d="M410.155,200.015c-2.547-3.101-7.646-3.743-11.48-3.743c-5.071,0-10.375,1.104-12.78,2.149
		c-12.677,5.5-21.511,13.258-27.138,19.551c-0.059-6.747-0.114-10.828-0.114-10.828H150.11c0,0,0,4.11,0.047,10.586
		c-5.646-6.149-14.273-13.521-26.451-18.799c-2.408-1.048-7.711-2.156-12.783-2.156c-3.834,0-8.938,0.648-11.483,3.748
		c-1.416,1.721-1.869,3.932-1.351,6.576c1.095,5.548,8.191,7.111,15.699,8.754c4.922,1.076,10.012,2.195,14.031,4.409
		c6.77,3.751,15.742,9.403,22.525,14.47c0.081,5.556,0.196,11.538,0.35,17.553c0,24.929,10.432,94.36,23.299,94.36h161.629
		c12.865,0,23.297-69.433,23.297-94.36c0-6.314-0.02-12.32-0.047-17.771c6.822-5.14,16.006-10.938,22.906-14.753
		c4.016-2.216,9.109-3.339,14.029-4.412c7.51-1.647,14.606-3.206,15.696-8.752C412.023,203.941,411.571,201.733,410.155,200.015z"/>
	<path id="Deckel" fill="#346369" d="M286.716,174.05c-1.186-19.845-15.161-35.508-32.25-35.508
		c-17.114,0-31.102,15.709-32.258,35.593c-32.961,4.125-59.184,14.314-70.379,27.315h205.936
		C346.491,188.369,319.992,178.113,286.716,174.05z M254.729,147.959c9.559,0,17.348,8.938,17.727,20.125
		c-5.511-0.67-11.356-1.034-17.414-1.034c-6.293,0-12.35,0.396-18.037,1.11C237.349,156.936,245.147,147.959,254.729,147.959z"/>
	<rect id="JS_BG" x="269.775" y="272.305" fill="#FFFFFF" width="64.545" height="64.545"/>
	<path id="J" fill="#346369" d="M286.747,326.242l4.939-2.988c0.953,1.688,1.818,3.118,3.897,3.118c1.993,0,3.25-0.778,3.25-3.813
		v-20.623h6.065v20.709c0,6.282-3.684,9.142-9.055,9.142C290.993,331.787,288.177,329.275,286.747,326.242"/>
	<path id="S" fill="#346369" d="M308.195,325.594l4.938-2.86c1.302,2.123,2.99,3.685,5.979,3.685c2.513,0,4.116-1.258,4.116-2.99
		c0-2.079-1.646-2.816-4.42-4.029l-1.517-0.648c-4.377-1.863-7.278-4.203-7.278-9.143c0-4.55,3.466-8.016,8.882-8.016
		c3.855,0,6.629,1.343,8.622,4.853l-4.725,3.032c-1.039-1.862-2.166-2.599-3.897-2.599c-1.776,0-2.903,1.126-2.903,2.599
		c0,1.82,1.127,2.557,3.727,3.684l1.517,0.649c5.156,2.21,8.06,4.463,8.06,9.531c0,5.46-4.29,8.449-10.052,8.449
		C313.61,331.788,309.972,329.103,308.195,325.594"/>
</g>
<g id="Schrift_Unten">
	<rect id="Block" x="-249.88" y="354.499" fill="#346369" width="1010" height="42.351"/>
	<g enable-background="new    ">
		<path fill="#FFFFFF" d="M106.804,382.999h-1.705l-7.022-10.784h-0.07c0.094,1.266,0.141,2.426,0.141,3.48v7.304h-1.38v-12.85
			h1.688l7.005,10.74h0.07c-0.012-0.158-0.038-0.666-0.079-1.525c-0.041-0.857-0.056-1.472-0.044-1.841v-7.374h1.397V382.999z"/>
		<path fill="#FFFFFF" d="M111.489,373.366v6.249c0,0.785,0.179,1.371,0.536,1.758s0.917,0.58,1.679,0.58
			c1.008,0,1.745-0.275,2.21-0.826s0.699-1.45,0.699-2.698v-5.063h1.459v9.633h-1.204l-0.211-1.292h-0.079
			c-0.299,0.475-0.713,0.838-1.244,1.09s-1.135,0.378-1.815,0.378c-1.172,0-2.049-0.278-2.632-0.835s-0.875-1.447-0.875-2.672
			v-6.302H111.489z"/>
		<path fill="#FFFFFF" d="M125.56,373.191c0.428,0,0.812,0.035,1.151,0.105l-0.202,1.354c-0.398-0.088-0.75-0.132-1.055-0.132
			c-0.779,0-1.446,0.316-2,0.949s-0.831,1.421-0.831,2.364v5.168h-1.459v-9.633h1.204l0.167,1.784h0.07
			c0.357-0.627,0.788-1.11,1.292-1.45S124.956,373.191,125.56,373.191z"/>
		<path fill="#FFFFFF" d="M137.671,373.208c1.266,0,2.249,0.433,2.949,1.297s1.05,2.087,1.05,3.669s-0.353,2.812-1.059,3.687
			c-0.706,0.877-1.686,1.314-2.94,1.314c-0.627,0-1.2-0.116-1.718-0.348c-0.519-0.23-0.954-0.587-1.305-1.067h-0.105l-0.308,1.239
			h-1.046v-13.676h1.459v3.322c0,0.744-0.023,1.412-0.07,2.004h0.07C135.327,373.689,136.335,373.208,137.671,373.208z
			 M137.46,374.43c-0.996,0-1.714,0.286-2.153,0.856c-0.439,0.572-0.659,1.534-0.659,2.888s0.226,2.322,0.677,2.905
			s1.175,0.874,2.171,0.874c0.896,0,1.564-0.326,2.004-0.979s0.659-1.593,0.659-2.817c0-1.254-0.22-2.188-0.659-2.804
			S138.38,374.43,137.46,374.43z"/>
		<path fill="#FFFFFF" d="M148.288,383.175c-1.424,0-2.547-0.434-3.371-1.301s-1.235-2.071-1.235-3.612
			c0-1.553,0.382-2.786,1.147-3.7s1.792-1.371,3.081-1.371c1.207,0,2.162,0.397,2.865,1.191s1.055,1.841,1.055,3.142v0.923h-6.636
			c0.029,1.131,0.315,1.989,0.857,2.575s1.305,0.879,2.29,0.879c1.037,0,2.063-0.217,3.076-0.65v1.301
			c-0.516,0.223-1.003,0.382-1.463,0.479C149.494,383.126,148.939,383.175,148.288,383.175z M147.893,374.412
			c-0.773,0-1.39,0.252-1.85,0.756s-0.731,1.201-0.813,2.092h5.036c0-0.92-0.205-1.624-0.615-2.114
			C149.24,374.657,148.655,374.412,147.893,374.412z"/>
		<path fill="#FFFFFF" d="M160.531,380.371c0,0.896-0.334,1.588-1.002,2.074s-1.605,0.729-2.813,0.729
			c-1.277,0-2.273-0.202-2.988-0.606v-1.354c0.463,0.234,0.959,0.419,1.49,0.554s1.042,0.202,1.534,0.202
			c0.762,0,1.348-0.121,1.758-0.364s0.615-0.614,0.615-1.112c0-0.375-0.163-0.695-0.488-0.962s-0.959-0.582-1.903-0.945
			c-0.896-0.334-1.534-0.625-1.912-0.875c-0.378-0.248-0.659-0.531-0.844-0.848s-0.277-0.694-0.277-1.134
			c0-0.785,0.319-1.404,0.958-1.858s1.515-0.682,2.628-0.682c1.037,0,2.051,0.211,3.041,0.633l-0.519,1.187
			c-0.967-0.398-1.843-0.598-2.628-0.598c-0.691,0-1.213,0.108-1.564,0.325s-0.527,0.516-0.527,0.896
			c0,0.258,0.066,0.478,0.198,0.659s0.344,0.354,0.637,0.519s0.855,0.401,1.688,0.712c1.143,0.416,1.915,0.835,2.316,1.257
			S160.531,379.733,160.531,380.371z"/>
		<path fill="#FFFFFF" d="M166.016,381.971c0.258,0,0.507-0.019,0.747-0.058c0.24-0.037,0.431-0.077,0.571-0.118v1.116
			c-0.158,0.076-0.391,0.139-0.699,0.189c-0.308,0.049-0.584,0.074-0.831,0.074c-1.863,0-2.795-0.981-2.795-2.944v-5.73h-1.38
			v-0.703l1.38-0.606l0.615-2.057h0.844v2.232h2.795v1.134h-2.795v5.669c0,0.58,0.138,1.025,0.413,1.336
			S165.535,381.971,166.016,381.971z"/>
		<path fill="#FFFFFF" d="M173.328,383.175c-1.424,0-2.547-0.434-3.371-1.301s-1.235-2.071-1.235-3.612
			c0-1.553,0.382-2.786,1.147-3.7s1.792-1.371,3.081-1.371c1.207,0,2.162,0.397,2.865,1.191s1.055,1.841,1.055,3.142v0.923h-6.636
			c0.029,1.131,0.315,1.989,0.857,2.575s1.305,0.879,2.29,0.879c1.037,0,2.063-0.217,3.076-0.65v1.301
			c-0.516,0.223-1.003,0.382-1.463,0.479C174.534,383.126,173.979,383.175,173.328,383.175z M172.933,374.412
			c-0.773,0-1.39,0.252-1.85,0.756s-0.731,1.201-0.813,2.092h5.036c0-0.92-0.205-1.624-0.615-2.114
			C174.281,374.657,173.695,374.412,172.933,374.412z"/>
		<path fill="#FFFFFF" d="M192.04,382.999h-8.833v-1.169l6.82-10.336h-6.609v-1.345h8.429v1.169l-6.82,10.327h7.014V382.999z"/>
		<path fill="#FFFFFF" d="M195.679,373.366v6.249c0,0.785,0.179,1.371,0.536,1.758s0.917,0.58,1.679,0.58
			c1.008,0,1.745-0.275,2.21-0.826s0.699-1.45,0.699-2.698v-5.063h1.459v9.633h-1.204l-0.211-1.292h-0.079
			c-0.299,0.475-0.713,0.838-1.244,1.09s-1.135,0.378-1.815,0.378c-1.172,0-2.049-0.278-2.632-0.835s-0.875-1.447-0.875-2.672
			v-6.302H195.679z"/>
		<path fill="#FFFFFF" d="M208.467,381.971c0.258,0,0.507-0.019,0.747-0.058c0.24-0.037,0.431-0.077,0.571-0.118v1.116
			c-0.158,0.076-0.391,0.139-0.699,0.189c-0.308,0.049-0.584,0.074-0.831,0.074c-1.863,0-2.795-0.981-2.795-2.944v-5.73h-1.38
			v-0.703l1.38-0.606l0.615-2.057h0.844v2.232h2.795v1.134h-2.795v5.669c0,0.58,0.138,1.025,0.413,1.336
			S207.987,381.971,208.467,381.971z"/>
		<path fill="#FFFFFF" d="M217.634,382.999l-0.29-1.371h-0.07c-0.48,0.604-0.959,1.013-1.437,1.227
			c-0.478,0.213-1.074,0.32-1.789,0.32c-0.955,0-1.704-0.246-2.246-0.738s-0.813-1.192-0.813-2.101c0-1.945,1.556-2.965,4.667-3.059
			l1.635-0.053v-0.598c0-0.756-0.163-1.313-0.488-1.675c-0.325-0.359-0.845-0.54-1.56-0.54c-0.803,0-1.711,0.246-2.725,0.738
			l-0.448-1.116c0.475-0.258,0.995-0.46,1.56-0.606s1.132-0.22,1.701-0.22c1.148,0,2,0.255,2.553,0.765s0.831,1.327,0.831,2.452
			v6.574H217.634z M214.338,381.971c0.908,0,1.622-0.249,2.14-0.747s0.778-1.195,0.778-2.092v-0.87l-1.459,0.062
			c-1.16,0.041-1.997,0.222-2.509,0.541s-0.769,0.815-0.769,1.489c0,0.527,0.16,0.929,0.479,1.204S213.764,381.971,214.338,381.971z
			"/>
		<path fill="#FFFFFF" d="M224.832,381.971c0.258,0,0.507-0.019,0.747-0.058c0.24-0.037,0.431-0.077,0.571-0.118v1.116
			c-0.158,0.076-0.391,0.139-0.699,0.189c-0.308,0.049-0.584,0.074-0.831,0.074c-1.863,0-2.795-0.981-2.795-2.944v-5.73h-1.38
			v-0.703l1.38-0.606l0.615-2.057h0.844v2.232h2.795v1.134h-2.795v5.669c0,0.58,0.138,1.025,0.413,1.336
			S224.352,381.971,224.832,381.971z"/>
		<path fill="#FFFFFF" d="M232.145,383.175c-1.424,0-2.547-0.434-3.371-1.301s-1.235-2.071-1.235-3.612
			c0-1.553,0.382-2.786,1.147-3.7s1.792-1.371,3.081-1.371c1.207,0,2.162,0.397,2.865,1.191s1.055,1.841,1.055,3.142v0.923h-6.636
			c0.029,1.131,0.315,1.989,0.857,2.575s1.305,0.879,2.29,0.879c1.037,0,2.063-0.217,3.076-0.65v1.301
			c-0.516,0.223-1.003,0.382-1.463,0.479C233.35,383.126,232.795,383.175,232.145,383.175z M231.749,374.412
			c-0.773,0-1.39,0.252-1.85,0.756s-0.731,1.201-0.813,2.092h5.036c0-0.92-0.205-1.624-0.615-2.114
			C233.097,374.657,232.511,374.412,231.749,374.412z"/>
		<path fill="#FFFFFF" d="M244.766,382.999v-6.231c0-0.785-0.179-1.371-0.536-1.758s-0.917-0.58-1.679-0.58
			c-1.008,0-1.746,0.272-2.215,0.817s-0.703,1.444-0.703,2.698v5.054h-1.459v-9.633h1.187l0.237,1.318h0.07
			c0.299-0.475,0.718-0.842,1.257-1.104c0.539-0.26,1.14-0.391,1.802-0.391c1.16,0,2.033,0.28,2.619,0.84s0.879,1.454,0.879,2.685
			v6.284H244.766z"/>
		<path fill="#FFFFFF" d="M258.239,374.5h-2.451v8.499h-1.459V374.5h-1.723v-0.659l1.723-0.527v-0.536
			c0-2.367,1.034-3.551,3.102-3.551c0.51,0,1.107,0.103,1.793,0.308l-0.377,1.169c-0.563-0.182-1.043-0.272-1.441-0.272
			c-0.551,0-0.959,0.184-1.223,0.549c-0.264,0.367-0.395,0.954-0.395,1.763v0.624h2.451V374.5z"/>
		<path fill="#FFFFFF" d="M261.368,373.366v6.249c0,0.785,0.18,1.371,0.537,1.758s0.916,0.58,1.678,0.58
			c1.008,0,1.745-0.275,2.211-0.826s0.699-1.45,0.699-2.698v-5.063h1.459v9.633h-1.205l-0.211-1.292h-0.078
			c-0.299,0.475-0.714,0.838-1.244,1.09s-1.135,0.378-1.814,0.378c-1.172,0-2.05-0.278-2.633-0.835s-0.875-1.447-0.875-2.672v-6.302
			H261.368z M261.456,370.756c0-0.305,0.078-0.524,0.233-0.659s0.341-0.202,0.558-0.202c0.223,0,0.415,0.067,0.576,0.202
			s0.242,0.354,0.242,0.659c0,0.293-0.081,0.512-0.242,0.655s-0.354,0.215-0.576,0.215c-0.217,0-0.402-0.071-0.558-0.215
			S261.456,371.049,261.456,370.756z M264.805,370.756c0-0.305,0.077-0.524,0.232-0.659s0.342-0.202,0.559-0.202
			s0.405,0.067,0.566,0.202s0.242,0.354,0.242,0.659c0,0.293-0.081,0.512-0.242,0.655s-0.35,0.215-0.566,0.215
			s-0.403-0.071-0.559-0.215S264.805,371.049,264.805,370.756z"/>
		<path fill="#FFFFFF" d="M275.44,373.191c0.428,0,0.811,0.035,1.15,0.105l-0.201,1.354c-0.398-0.088-0.75-0.132-1.055-0.132
			c-0.779,0-1.446,0.316-2,0.949s-0.83,1.421-0.83,2.364v5.168h-1.459v-9.633h1.203l0.168,1.784h0.07
			c0.357-0.627,0.787-1.11,1.291-1.45S274.837,373.191,275.44,373.191z"/>
		<path fill="#FFFFFF" d="M283.288,382.999v-12.85h1.494v12.85H283.288z"/>
		<path fill="#FFFFFF" d="M294.678,382.999v-6.231c0-0.785-0.178-1.371-0.535-1.758s-0.918-0.58-1.68-0.58
			c-1.014,0-1.753,0.275-2.219,0.826s-0.699,1.453-0.699,2.707v5.036h-1.459v-13.676h1.459v4.14c0,0.498-0.023,0.911-0.07,1.239
			h0.088c0.287-0.463,0.696-0.827,1.227-1.094s1.135-0.4,1.814-0.4c1.178,0,2.062,0.28,2.65,0.84s0.883,1.448,0.883,2.667v6.284
			H294.678z"/>
		<path fill="#FFFFFF" d="M303.53,373.191c0.428,0,0.811,0.035,1.15,0.105l-0.201,1.354c-0.398-0.088-0.75-0.132-1.055-0.132
			c-0.779,0-1.446,0.316-2,0.949s-0.83,1.421-0.83,2.364v5.168h-1.459v-9.633h1.203l0.168,1.784h0.07
			c0.357-0.627,0.787-1.11,1.291-1.45S302.927,373.191,303.53,373.191z"/>
		<path fill="#FFFFFF" d="M310.552,383.175c-1.424,0-2.547-0.434-3.37-1.301s-1.235-2.071-1.235-3.612
			c0-1.553,0.383-2.786,1.147-3.7s1.792-1.371,3.081-1.371c1.207,0,2.162,0.397,2.865,1.191s1.055,1.841,1.055,3.142v0.923h-6.637
			c0.029,1.131,0.315,1.989,0.857,2.575s1.305,0.879,2.289,0.879c1.037,0,2.063-0.217,3.076-0.65v1.301
			c-0.516,0.223-1.003,0.382-1.463,0.479C311.758,383.126,311.202,383.175,310.552,383.175z M310.157,374.412
			c-0.773,0-1.391,0.252-1.851,0.756s-0.731,1.201-0.813,2.092h5.037c0-0.92-0.205-1.624-0.615-2.114
			C311.505,374.657,310.919,374.412,310.157,374.412z"/>
		<path fill="#FFFFFF" d="M329.553,382.999l-1.6-4.087h-5.15l-1.582,4.087h-1.512l5.08-12.902h1.258l5.053,12.902H329.553z
			 M327.489,377.568l-1.494-3.981c-0.193-0.504-0.393-1.122-0.598-1.854c-0.129,0.563-0.314,1.181-0.555,1.854l-1.512,3.981H327.489
			z"/>
		<path fill="#FFFFFF" d="M337.13,383.175c-0.627,0-1.199-0.116-1.718-0.348c-0.519-0.23-0.954-0.587-1.306-1.067h-0.105
			c0.07,0.563,0.105,1.096,0.105,1.6v3.964h-1.459v-13.957h1.188l0.201,1.318h0.07c0.375-0.527,0.813-0.908,1.311-1.143
			s1.068-0.352,1.713-0.352c1.277,0,2.264,0.437,2.958,1.31s1.042,2.098,1.042,3.674c0,1.582-0.354,2.812-1.06,3.687
			C339.364,382.738,338.384,383.175,337.13,383.175z M336.919,374.43c-0.984,0-1.695,0.272-2.135,0.817s-0.666,1.412-0.678,2.602
			v0.325c0,1.354,0.227,2.322,0.678,2.905s1.174,0.874,2.17,0.874c0.832,0,1.484-0.337,1.956-1.011s0.708-1.603,0.708-2.786
			c0-1.201-0.236-2.122-0.708-2.765C338.438,374.751,337.774,374.43,336.919,374.43z"/>
		<path fill="#FFFFFF" d="M348.161,383.175c-0.627,0-1.2-0.116-1.719-0.348c-0.519-0.23-0.953-0.587-1.305-1.067h-0.105
			c0.07,0.563,0.105,1.096,0.105,1.6v3.964h-1.459v-13.957h1.186l0.203,1.318h0.07c0.375-0.527,0.811-0.908,1.309-1.143
			s1.07-0.352,1.715-0.352c1.277,0,2.263,0.437,2.957,1.31c0.695,0.873,1.041,2.098,1.041,3.674c0,1.582-0.354,2.812-1.059,3.687
			C350.394,382.738,349.415,383.175,348.161,383.175z M347.95,374.43c-0.984,0-1.697,0.272-2.137,0.817s-0.664,1.412-0.676,2.602
			v0.325c0,1.354,0.225,2.322,0.676,2.905s1.176,0.874,2.172,0.874c0.832,0,1.483-0.337,1.955-1.011s0.707-1.603,0.707-2.786
			c0-1.201-0.235-2.122-0.707-2.765C349.469,374.751,348.805,374.43,347.95,374.43z"/>
		<path fill="#FFFFFF" d="M356.167,382.999h-1.459v-13.676h1.459V382.999z"/>
		<path fill="#FFFFFF" d="M359.137,370.756c0-0.334,0.082-0.578,0.246-0.733s0.369-0.233,0.615-0.233
			c0.234,0,0.438,0.079,0.607,0.237s0.254,0.401,0.254,0.729s-0.084,0.573-0.254,0.733c-0.17,0.162-0.373,0.242-0.607,0.242
			c-0.246,0-0.451-0.08-0.615-0.242C359.219,371.329,359.137,371.084,359.137,370.756z M360.719,382.999h-1.459v-9.633h1.459
			V382.999z"/>
		<path fill="#FFFFFF" d="M365.255,378.069c0.252-0.357,0.637-0.826,1.152-1.406l3.111-3.296h1.73l-3.902,4.104l4.176,5.528h-1.768
			l-3.4-4.553l-1.1,0.949v3.604h-1.441v-13.676h1.441v7.251c0,0.322-0.023,0.82-0.07,1.494H365.255z"/>
		<path fill="#FFFFFF" d="M379.186,382.999l-0.291-1.371h-0.07c-0.48,0.604-0.959,1.013-1.436,1.227
			c-0.479,0.213-1.074,0.32-1.789,0.32c-0.955,0-1.705-0.246-2.246-0.738c-0.543-0.492-0.813-1.192-0.813-2.101
			c0-1.945,1.555-2.965,4.666-3.059l1.635-0.053v-0.598c0-0.756-0.162-1.313-0.486-1.675c-0.326-0.359-0.846-0.54-1.561-0.54
			c-0.803,0-1.711,0.246-2.725,0.738l-0.449-1.116c0.475-0.258,0.994-0.46,1.561-0.606c0.564-0.146,1.133-0.22,1.701-0.22
			c1.148,0,2,0.255,2.553,0.765c0.555,0.51,0.83,1.327,0.83,2.452v6.574H379.186z M375.889,381.971c0.908,0,1.623-0.249,2.141-0.747
			c0.52-0.498,0.777-1.195,0.777-2.092v-0.87l-1.459,0.062c-1.16,0.041-1.996,0.222-2.508,0.541c-0.514,0.319-0.77,0.815-0.77,1.489
			c0,0.527,0.158,0.929,0.479,1.204C374.868,381.833,375.315,381.971,375.889,381.971z"/>
		<path fill="#FFFFFF" d="M386.384,381.971c0.258,0,0.508-0.019,0.748-0.058c0.24-0.037,0.43-0.077,0.57-0.118v1.116
			c-0.158,0.076-0.391,0.139-0.699,0.189c-0.307,0.049-0.584,0.074-0.83,0.074c-1.863,0-2.795-0.981-2.795-2.944v-5.73h-1.379
			v-0.703l1.379-0.606l0.615-2.057h0.844v2.232h2.795v1.134h-2.795v5.669c0,0.58,0.139,1.025,0.414,1.336
			S385.903,381.971,386.384,381.971z"/>
		<path fill="#FFFFFF" d="M389.505,370.756c0-0.334,0.082-0.578,0.246-0.733s0.369-0.233,0.615-0.233
			c0.234,0,0.436,0.079,0.605,0.237s0.256,0.401,0.256,0.729s-0.086,0.573-0.256,0.733c-0.17,0.162-0.371,0.242-0.605,0.242
			c-0.246,0-0.451-0.08-0.615-0.242C389.587,371.329,389.505,371.084,389.505,370.756z M391.087,382.999h-1.459v-9.633h1.459
			V382.999z"/>
		<path fill="#FFFFFF" d="M402.495,378.174c0,1.57-0.396,2.797-1.188,3.679s-1.883,1.322-3.277,1.322
			c-0.861,0-1.627-0.202-2.295-0.606s-1.184-0.984-1.547-1.74s-0.545-1.641-0.545-2.654c0-1.57,0.393-2.793,1.178-3.669
			s1.875-1.314,3.27-1.314c1.348,0,2.418,0.448,3.213,1.345C402.096,375.432,402.495,376.645,402.495,378.174z M395.155,378.174
			c0,1.23,0.246,2.168,0.738,2.813s1.217,0.967,2.172,0.967s1.68-0.321,2.176-0.962c0.494-0.643,0.742-1.581,0.742-2.817
			c0-1.225-0.248-2.154-0.742-2.79c-0.496-0.636-1.227-0.954-2.193-0.954c-0.955,0-1.676,0.313-2.162,0.94
			S395.155,376.932,395.155,378.174z"/>
		<path fill="#FFFFFF" d="M411.643,382.999v-6.231c0-0.785-0.178-1.371-0.535-1.758s-0.918-0.58-1.68-0.58
			c-1.008,0-1.746,0.272-2.215,0.817s-0.703,1.444-0.703,2.698v5.054h-1.459v-9.633h1.188l0.236,1.318h0.07
			c0.299-0.475,0.719-0.842,1.258-1.104c0.539-0.26,1.139-0.391,1.801-0.391c1.16,0,2.033,0.28,2.619,0.84s0.879,1.454,0.879,2.685
			v6.284H411.643z"/>
	</g>
</g>
<g id="Schrift_Oben">
	<polygon id="Banner" fill="#346369" points="492.085,86.472 17.509,86.472 51.407,51.162 17.509,15.851 492.085,15.851 
		457.561,51.162 	"/>
	<g enable-background="new    ">
		<path fill="#FFFFFF" d="M131.035,62.499h-14.801V36.8h14.801v4.465h-9.352v5.643h8.701v4.465h-8.701v6.627h9.352V62.499z"/>
		<path fill="#FFFFFF" d="M140,52.462l-6.328-9.615h6.082l3.814,6.258l3.85-6.258h6.082l-6.398,9.615l6.697,10.037h-6.1
			l-4.131-6.732l-4.148,6.732h-6.082L140,52.462z"/>
		<path fill="#FFFFFF" d="M165.067,58.579c0.938,0,2.063-0.205,3.375-0.615v3.99c-1.336,0.598-2.977,0.896-4.922,0.896
			c-2.145,0-3.706-0.542-4.685-1.626s-1.468-2.71-1.468-4.878v-9.475h-2.566v-2.268l2.953-1.793l1.547-4.148h3.428v4.184h5.502
			v4.025h-5.502v9.475c0,0.762,0.214,1.324,0.642,1.688S164.364,58.579,165.067,58.579z"/>
		<path fill="#FFFFFF" d="M179.498,70.058c-1.23,0-2.303-0.129-3.217-0.387v-4.535c0.938,0.234,1.793,0.352,2.566,0.352
			c1.195,0,2.051-0.372,2.566-1.116s0.773-1.907,0.773-3.489V36.8h5.449v24.047c0,3-0.686,5.285-2.057,6.855
			S182.182,70.058,179.498,70.058z"/>
		<path fill="#FFFFFF" d="M209.276,55.363c0,2.32-0.835,4.148-2.505,5.484s-3.993,2.004-6.97,2.004
			c-2.742,0-5.168-0.516-7.277-1.547v-5.063c1.734,0.773,3.202,1.318,4.403,1.635s2.3,0.475,3.296,0.475
			c1.195,0,2.112-0.229,2.751-0.686s0.958-1.137,0.958-2.039c0-0.504-0.141-0.952-0.422-1.345s-0.694-0.771-1.239-1.134
			s-1.655-0.943-3.331-1.74c-1.57-0.738-2.748-1.447-3.533-2.127s-1.412-1.471-1.881-2.373s-0.703-1.957-0.703-3.164
			c0-2.273,0.771-4.061,2.312-5.361s3.671-1.951,6.39-1.951c1.336,0,2.61,0.158,3.823,0.475s2.481,0.762,3.806,1.336l-1.758,4.236
			c-1.371-0.563-2.505-0.955-3.401-1.178s-1.778-0.334-2.646-0.334c-1.031,0-1.822,0.24-2.373,0.721s-0.826,1.107-0.826,1.881
			c0,0.48,0.111,0.899,0.334,1.257s0.577,0.703,1.063,1.037s1.638,0.935,3.454,1.802c2.402,1.148,4.049,2.3,4.939,3.454
			S209.276,53.687,209.276,55.363z"/>
		<path fill="#FFFFFF" d="M243.957,62.499h-6.188l-6.732-10.828l-2.303,1.652v9.176h-5.449V36.8h5.449v11.76l2.145-3.023
			l6.961-8.736h6.047l-8.965,11.373L243.957,62.499z"/>
		<path fill="#FFFFFF" d="M264.63,52.638c0,3.199-0.844,5.701-2.531,7.506s-4.037,2.707-7.049,2.707
			c-1.887,0-3.551-0.413-4.992-1.239s-2.549-2.013-3.322-3.56s-1.16-3.352-1.16-5.414c0-3.211,0.838-5.707,2.514-7.488
			s4.031-2.672,7.066-2.672c1.887,0,3.551,0.41,4.993,1.23s2.549,1.998,3.322,3.533S264.63,50.575,264.63,52.638z M251.041,52.638
			c0,1.945,0.319,3.416,0.958,4.412s1.679,1.494,3.12,1.494c1.43,0,2.458-0.495,3.084-1.485s0.941-2.464,0.941-4.421
			c0-1.945-0.316-3.404-0.949-4.377s-1.67-1.459-3.112-1.459c-1.43,0-2.461,0.483-3.094,1.45S251.041,50.681,251.041,52.638z"/>
		<path fill="#FFFFFF" d="M277.04,62.851c-6.117,0-9.176-3.357-9.176-10.072c0-3.34,0.832-5.892,2.496-7.655
			s4.049-2.646,7.154-2.646c2.273,0,4.313,0.445,6.117,1.336l-1.582,4.148c-0.844-0.34-1.629-0.618-2.355-0.835
			s-1.453-0.325-2.18-0.325c-2.789,0-4.184,1.98-4.184,5.941c0,3.844,1.395,5.766,4.184,5.766c1.031,0,1.986-0.138,2.865-0.413
			s1.758-0.706,2.637-1.292v4.588c-0.867,0.551-1.744,0.932-2.629,1.143S278.387,62.851,277.04,62.851z"/>
		<path fill="#FFFFFF" d="M305.71,62.499h-5.361V51.021c0-2.836-1.055-4.254-3.164-4.254c-1.5,0-2.584,0.51-3.252,1.529
			s-1.002,2.672-1.002,4.957v9.246h-5.361V35.148h5.361v5.572c0,0.434-0.041,1.453-0.123,3.059l-0.123,1.582h0.281
			c1.195-1.922,3.094-2.883,5.695-2.883c2.309,0,4.061,0.621,5.256,1.863s1.793,3.023,1.793,5.344V62.499z"/>
		<path fill="#FFFFFF" d="M322.163,42.478c2.32,0,4.137,0.905,5.449,2.716s1.969,4.292,1.969,7.444c0,3.246-0.678,5.76-2.031,7.541
			s-3.195,2.672-5.527,2.672c-2.309,0-4.119-0.838-5.432-2.514h-0.369l-0.896,2.162h-4.096V35.148h5.361v6.363
			c0,0.809-0.07,2.104-0.211,3.885h0.211C317.844,43.45,319.702,42.478,322.163,42.478z M320.44,46.767
			c-1.324,0-2.291,0.407-2.9,1.222s-0.926,2.159-0.949,4.034v0.58c0,2.109,0.313,3.621,0.939,4.535s1.621,1.371,2.98,1.371
			c1.102,0,1.977-0.507,2.627-1.521s0.977-2.487,0.977-4.421s-0.328-3.384-0.984-4.351S321.577,46.767,320.44,46.767z"/>
		<path fill="#FFFFFF" d="M347.932,62.499l-0.721-2.514h-0.281c-0.574,0.914-1.389,1.62-2.443,2.118s-2.256,0.747-3.604,0.747
			c-2.309,0-4.049-0.618-5.221-1.854s-1.758-3.015-1.758-5.335V42.847h5.361v11.479c0,1.418,0.252,2.481,0.756,3.19
			s1.307,1.063,2.408,1.063c1.5,0,2.584-0.501,3.252-1.503s1.002-2.663,1.002-4.983v-9.246h5.361v19.652H347.932z"/>
		<path fill="#FFFFFF" d="M365.651,62.851c-6.117,0-9.176-3.357-9.176-10.072c0-3.34,0.832-5.892,2.496-7.655
			s4.049-2.646,7.154-2.646c2.273,0,4.313,0.445,6.117,1.336l-1.582,4.148c-0.844-0.34-1.629-0.618-2.355-0.835
			s-1.453-0.325-2.18-0.325c-2.789,0-4.184,1.98-4.184,5.941c0,3.844,1.395,5.766,4.184,5.766c1.031,0,1.986-0.138,2.865-0.413
			s1.758-0.706,2.637-1.292v4.588c-0.867,0.551-1.744,0.932-2.629,1.143S366.999,62.851,365.651,62.851z"/>
		<path fill="#FFFFFF" d="M394.321,62.499h-5.361V51.021c0-2.836-1.055-4.254-3.164-4.254c-1.5,0-2.584,0.51-3.252,1.529
			s-1.002,2.672-1.002,4.957v9.246h-5.361V35.148h5.361v5.572c0,0.434-0.041,1.453-0.123,3.059l-0.123,1.582h0.281
			c1.195-1.922,3.094-2.883,5.695-2.883c2.309,0,4.061,0.621,5.256,1.863s1.793,3.023,1.793,5.344V62.499z"/>
	</g>
</g>
</svg>
