<?xml version="1.0" encoding="utf-8"?>
<!DOCTYPE svg PUBLIC "-//W3C//DTD SVG 1.1//EN" "http://www.w3.org/Graphics/SVG/1.1/DTD/svg11.dtd">
<svg version="1.1" id="Ebene_1" xmlns="http://www.w3.org/2000/svg" xmlns:xlink="http://www.w3.org/1999/xlink" x="0px" y="0px"
	 width="86px" height="252px" viewBox="0 0 86 252" enable-background="new 0 0 86 252" xml:space="preserve">
<g>
	<path fill="#346369" d="M78.344,167.322c-2.762-8.891-27.093-62.502-28.005-64.772l-0.003,0.004
		c-0.201-0.502-0.769-0.745-1.27-0.538c-0.496,0.201-0.739,0.766-0.535,1.266c0.951,2.34,25.311,56.072,27.954,64.619
		c4.395,14.164,6.202,25.862,6.202,35.5c-0.01,35.627-24.584,43.517-35.561,45.228c0.243-0.167,0.457-0.302,0.717-0.491
		c2.424-1.751,5.604-4.443,8.805-8.229c6.398-7.559,12.859-19.517,13.392-36.917c0.02-0.5,0.023-1.007,0.028-1.521
		c-0.023-26.401-19.292-88.331-21.814-97.971c-0.137-0.519-0.67-0.831-1.193-0.696c-0.519,0.137-0.826,0.671-0.691,1.192
		c2.559,9.671,21.771,71.726,21.747,97.475c0,0.502-0.003,0.984-0.023,1.456c-0.521,16.68-6.578,28.069-12.646,35.377
		c-3.691,4.478-7.475,7.429-9.909,9.056c7.048-14.856,9.353-36.182,9.358-57.969c-0.002-38.076-7.093-77.438-9.102-85.431
		c-0.131-0.521-0.635-0.827-1.126-0.688c-0.491,0.137-0.78,0.671-0.653,1.188c1.955,7.738,9.048,47.129,9.043,84.931
		c0.012,21.745-2.375,42.977-9.27,57.321c-0.188-6.743-0.258-16.727-0.254-28.357c-0.004-32.35,0.527-77.291,0.527-100.004
		c0-7.338-0.052-12.309-0.203-13.947c-0.053-0.534-0.523-0.92-1.06-0.871c-0.538,0.048-0.933,0.521-0.88,1.05
		c0.137,1.418,0.196,6.467,0.191,13.769c0.005,22.689-0.527,67.639-0.527,100.004c0,11.549,0.068,21.483,0.254,28.264
		c-6.861-14.34-9.237-35.531-9.227-57.229c-0.004-37.8,7.089-77.19,9.044-84.929c0.128-0.517-0.161-1.053-0.653-1.188
		c-0.491-0.142-0.996,0.166-1.125,0.688c-2.01,7.992-9.1,47.354-9.103,85.429c0.007,21.787,2.31,43.114,9.358,57.971
		c-2.434-1.629-6.219-4.578-9.909-9.056c-6.067-7.31-12.126-18.7-12.646-35.379c-0.02-0.473-0.023-0.954-0.023-1.454
		c-0.023-25.751,19.188-87.806,21.747-97.475c0.136-0.523-0.172-1.056-0.692-1.192c-0.523-0.137-1.055,0.176-1.191,0.696
		c-2.523,9.64-21.791,71.569-21.816,97.971c0.004,0.513,0.01,1.021,0.029,1.519c0.531,17.401,6.994,29.359,13.393,36.918
		c3.2,3.787,6.379,6.479,8.804,8.23c0.261,0.189,0.473,0.322,0.715,0.491c-10.975-1.711-35.55-9.601-35.56-45.228
		c0-9.638,1.808-21.336,6.204-35.5c2.643-8.547,27.001-62.28,27.954-64.621c0.203-0.5-0.041-1.063-0.536-1.266
		c-0.501-0.205-1.067,0.038-1.269,0.538l-0.005-0.004C34.42,104.82,10.09,158.432,7.324,167.32
		c-4.44,14.312-6.289,26.198-6.289,36.08c-0.012,43.006,35.108,47.508,41.648,47.618c0.008,0,0.02,0,0.028,0
		c0.044,0,0.079-0.019,0.122-0.023c0.041,0.005,0.08,0.023,0.125,0.023c0.01,0,0.02,0,0.028,0
		c6.54-0.107,41.658-4.612,41.647-47.618C84.635,193.519,82.787,181.635,78.344,167.322z"/>
	<path fill="#346369" d="M42.98,0.908c-5.679,0-10.283,4.605-10.283,10.285v88.907c0,5.679,4.604,5.573,10.283,5.573
		c5.682,0,10.285,0.105,10.285-5.573V11.193C53.266,5.514,48.662,0.908,42.98,0.908z M46.435,21.512
		c0,1.918-1.555,3.475-3.473,3.475c-1.919,0-3.475-1.557-3.475-3.475V11.09c0-1.918,1.556-3.477,3.475-3.477
		c1.918,0,3.473,1.559,3.473,3.477V21.512z"/>
</g>
</svg>
